<?xml version="1.0" standalone="no"?>
<!DOCTYPE svg PUBLIC "-//W3C//DTD SVG 20010904//EN"
 "http://www.w3.org/TR/2001/REC-SVG-20010904/DTD/svg10.dtd">
<svg version="1.0" xmlns="http://www.w3.org/2000/svg"
 width="98.000000pt" height="98.000000pt" viewBox="0 0 98.000000 98.000000"
 preserveAspectRatio="xMidYMid meet">
<metadata>
Created by potrace 1.11, written by Peter Selinger 2001-2013
</metadata>
<g transform="translate(0.000000,98.000000) scale(0.100000,-0.100000)"
fill="#000000" stroke="none">
<path d="M425 964 c-16 -9 -32 -21 -36 -25 -3 -5 -25 -8 -50 -8 -24 0 -51 -1
-61 -3 -30 -7 -69 -42 -89 -80 -11 -22 -33 -44 -54 -54 -53 -25 -76 -64 -79
-134 -2 -41 -9 -66 -21 -80 -11 -12 -20 -41 -23 -73 -3 -43 0 -58 21 -88 17
-25 24 -47 22 -69 -6 -65 29 -126 87 -153 22 -10 40 -28 46 -45 22 -60 93 -99
162 -87 21 4 32 1 36 -9 5 -13 49 -31 67 -28 4 1 7 -2 7 -7 0 -22 105 6 122
33 4 6 31 11 60 12 82 1 124 26 147 86 6 16 27 36 50 47 53 28 83 78 80 135
-2 30 3 53 16 72 11 16 20 31 21 34 0 3 4 18 9 33 9 34 -10 99 -35 122 -13 12
-16 24 -11 48 13 58 -33 136 -95 162 -19 8 -34 23 -38 38 -7 28 -73 90 -87 82
-5 -4 -9 -2 -9 3 0 5 -20 7 -44 5 -34 -4 -51 0 -73 16 -39 29 -110 36 -148 15z"/>
</g>
</svg>
